<?xml version="1.0" encoding="utf-8"?>
<!-- Generator: Adobe Illustrator 21.1.0, SVG Export Plug-In . SVG Version: 6.00 Build 0)  -->
<svg version="1.1" id="Layer_1" xmlns="http://www.w3.org/2000/svg" xmlns:xlink="http://www.w3.org/1999/xlink" x="0px" y="0px"
	 width="415px" height="127.1px" viewBox="0 0 415 127.1" style="enable-background:new 0 0 415 127.1;" xml:space="preserve">
<style type="text/css">
	.st0{fill:#B0B0B0;}
	.st1{fill:#EDEDED;}
</style>
<path class="st0" d="M102.3,40.3l0.2-0.4l-0.5-0.3c-0.1-0.1-3.1-2.1-5-2.2c-1-0.1-3.5,1-5,1.7c-0.5-0.9-1.2-1.7-1.9-2.5
	c-0.8-0.8-1.6-1.4-2.5-1.9c0.7-1.5,1.8-3.9,1.7-5c-0.2-1.9-2.1-4.9-2.2-5c-0.2-0.3-0.6-0.4-0.9-0.2L86,24.6L85.9,25l0.1,0.2
	c0.5,0.8,1.9,3.1,2,4.4c0,0.4-0.3,1.6-1.3,3.8c-0.1-0.4-0.4-0.8-0.7-1.2c-1.1-1.1-2.9-1.1-3.9-0.1c-0.4,0.4-0.6,0.8-0.7,1.3
	c-0.7,0.2-1.3,0.6-1.8,1.1c-1.6,1.6-1.9,4.2-0.8,6.8c-1.7-0.5-3.4-0.5-4.9,0l-2.6-3.9c0.2-0.9,0.4-3.5,0.5-5l-0.2,0
	c0-0.4,0-0.8-0.1-1.1c0,0,0,0,0,0c0,0,0.1-0.3-0.1-0.4L71.3,31L71.2,31c-0.1,0-0.2,0.1-0.3,0.3c-0.1,0.2-0.2,0.6-0.3,1.2l0,0
	c-0.3,1.2-0.6,3.4-0.8,5.5l0,0.1l0.1,0.1c0,0.1,0.8,2.1,1.4,3.5c-0.6-0.3-1-0.5-1.4-0.7c-0.5-0.2-0.9-0.4-1.1-0.6l-0.2-0.5
	c-0.7-2.4-1.3-4.2-1.7-5.3l-0.2,0.1c-0.1-0.3-0.3-0.6-0.4-0.8c-0.1-0.6-0.2-0.6-0.3-0.6l0,0c-0.1,0-0.1,0-0.2,0.1
	c-0.1,0.1-0.1,0.3-0.1,0.4c0,0.2,0,0.7,0.1,1.2l0,0c0.2,1.4,0.8,3.8,1.5,6.3l0,0.2l0.7,0.6l-2.1-0.7c-0.5-0.6-2.2-2.6-3.4-3.6
	l-0.2,0.2c-0.3-0.3-0.6-0.5-0.8-0.6C61.3,37,61.3,37,61.2,37c-0.1,0-0.2,0.1-0.1,0.5c0.1,0.2,0.3,0.5,0.6,0.9l0,0
	c0.7,1,1.9,2.5,3.2,4l0.1,0.1l0.1,0.1c0.1,0.1,3.7,1.8,5,2.4c-0.1,0.1-0.1,0.3-0.2,0.4c-5-1-12.6-2.4-20.9-3.4
	c-13.5-1.8-27.9-1.4-30.7-0.3c-0.1,0-0.2,0.1-0.2,0.1l-0.2,0.2l0,0.1c0,0.2,0,0.4,0.1,0.7c1.5,2.7,13.8,9.3,16.9,10.1
	c7.8,2.1,11.2,1.7,12.3,1.5c1.5-0.2,2.7-0.9,3.9-1.7c1.5-0.9,3-1.9,5.4-2c1.3-0.1,7.9-0.7,13.2-1.3c0.2,1,0.6,1.9,1.2,2.8
	c-4.7-2.4-10.1,2.5-17.6,10c-7,7-13.5,21.2-15.4,25.4l-0.6,1.4l1.4-0.6c4.2-1.8,18.4-8.4,25.4-15.4c7.5-7.5,12.3-12.9,10-17.6
	c0.9,0.6,1.9,0.9,2.8,1.2c-0.4,3.6-1.2,11.7-1.3,13.2c-0.1,2.4-1.1,4-2,5.4c-0.8,1.2-1.5,2.4-1.7,3.9c-0.1,1.1-0.5,4.5,1.5,12.3
	c0.5,2,3.3,7.5,5.9,11.7c1.1,1.7,2.1,3.2,3,4.2c0,0.1,0.1,0.1,0.1,0.2c0,0,0.1,0.1,0.1,0.1c0.3,0.4,0.7,0.6,0.9,0.8
	c0.2,0.1,0.4,0.2,0.5,0.2c0.1,0,0.2,0,0.3-0.1l0.2-0.1c0.1-0.1,0.1-0.2,0.2-0.3c1.1-2.7,1.5-17.1-0.3-30.7c-1.1-8.3-2.5-16-3.4-20.9
	c0.2-0.1,0.3-0.1,0.4-0.2c0.7,1.4,2.4,4.9,2.4,5l0.1,0.1l0.1,0.1c1.5,1.3,3.1,2.5,4,3.2l0,0c0.4,0.3,0.7,0.5,0.9,0.5
	c0.1,0,0.2,0.1,0.3,0.1c0.2,0,0.3-0.1,0.3-0.2l0.1-0.1l-0.1-0.1c0,0-0.1-0.1-0.2-0.2c-0.1-0.2-0.3-0.4-0.6-0.7l0.2-0.2
	c-1-1.1-3-2.9-3.6-3.4l-0.7-2.1l0.6,0.7l0.2,0c2.5,0.7,4.9,1.2,6.3,1.5l0,0c0.5,0.1,0.9,0.1,1.1,0.1c0,0,0,0,0.1,0
	c0.3,0,0.5-0.1,0.5-0.3c0-0.1,0-0.2-0.6-0.3c-0.2-0.1-0.5-0.2-0.8-0.3l0.1-0.2c-1.1-0.4-2.8-1-5.3-1.7l-0.5-0.2
	c-0.1-0.2-0.3-0.6-0.6-1.1c-0.2-0.4-0.4-0.9-0.7-1.4c1.5,0.6,3.4,1.3,3.5,1.4l0.1,0.1l0.1,0c2.2-0.2,4.3-0.5,5.5-0.8l0,0
	c0.5-0.1,1-0.2,1.2-0.3c0.3-0.1,0.3-0.2,0.3-0.3v-0.1l-0.1-0.1c-0.1-0.1-0.1-0.1-0.5,0c0,0,0,0-0.1,0c-0.2,0-0.6-0.1-1,0l0-0.2
	c-1.5,0-4.1,0.3-5,0.5l-3.9-2.6c0.5-1.5,0.5-3.2,0-4.9c2.7,1.1,5.3,0.8,6.8-0.8c0.5-0.5,0.9-1.1,1.1-1.8c0.5-0.1,0.9-0.4,1.3-0.7
	c1.1-1.1,1-2.8-0.1-3.9c-0.3-0.3-0.7-0.6-1.2-0.7c2.2-1,3.4-1.4,3.8-1.3c1.3,0.1,3.6,1.5,4.4,2l0.2,0.1l0.5-0.1L102.3,40.3
	L102.3,40.3L102.3,40.3z"/>
<path class="st1" d="M63.5,0C28.4,0,0,28.4,0,63.5c0,35.1,28.4,63.5,63.5,63.5c35.1,0,63.5-28.4,63.5-63.5S98.6,0,63.5,0z
	 M63.5,117.3c-29.7,0-53.8-24.1-53.8-53.8S33.8,9.8,63.5,9.8s53.8,24.1,53.8,53.8C117.3,93.2,93.2,117.3,63.5,117.3z"/>
<path class="st0" d="M228.6,10c0,0.4,0,0.8,0,1.1c0,12.6,0,25.2,0,37.7c0,1.7,0.1,3.3,0.4,5c0.4,2.9,2.2,4.7,5,5.4
	c3.8,0.9,7.6,0.9,11.4,0c3.4-0.9,5-3,5.2-6.8c0.1-1,0.1-2,0.1-3c0-12.7,0-25.5,0-38.2c0-0.4,0-0.7,0-1.1c2.2,0,4.3,0,6.4,0
	c0,0.3,0.1,0.6,0.1,0.8c0,13.6,0,27.1,0,40.7c0,2.2-0.3,4.3-1,6.3c-1,2.7-3,4.5-5.7,5.6c-3,1.2-6.1,1.5-9.3,1.6
	c-2.9,0.1-5.9-0.1-8.7-1c-2.8-0.9-5.2-2.5-6.9-5c-0.1-0.1-0.1-0.2-0.2-0.3c-3.4,4.8-8.3,6.2-13.8,6.3c-3.5,0.1-7-0.1-10.5-1.2
	c-4.5-1.4-6.9-4.6-7.5-9.3c-0.2-1.7-0.3-3.4-0.3-5.1c0-12.8,0-25.6,0-38.4c0-0.3,0-0.7,0-1c2.2,0,4.3,0,6.5,0c0,0.4,0.1,0.7,0.1,1.1
	c0,13,0,26,0,39c0,1,0.1,2.1,0.2,3.1c0.5,3.7,2.1,5.4,5.8,6.2c3.4,0.7,6.8,0.7,10.1,0c3.9-0.8,5.7-3,5.9-7.3
	c0.1-1.1,0.1-2.2,0.1-3.3c0-12.6,0-25.2,0-37.8c0-1,0-1,1-1c1.5,0,3.1,0,4.6,0C227.9,10,228.2,10,228.6,10z"/>
<path class="st0" d="M320.4,46.1c2.2,0,4.3,0,6.4,0c0,0.3,0,0.6,0.1,0.9c0.1,2.1,0,4.1,0.2,6.2c0.3,3,2.1,5,4.9,5.7
	c2.1,0.5,4.3,0.8,6.4,1c3.7,0.3,7.4,0.2,11.1-0.6c0.5-0.1,1-0.3,1.6-0.5c2.7-0.9,4.3-2.7,4.5-5.5c0.2-2,0.2-3.9,0.1-5.9
	c-0.2-2.9-1.9-4.9-4.9-5.7c-2.5-0.6-5.1-1-7.7-1.4c-4.4-0.7-8.9-1.4-13.3-2.2c-2-0.4-3.9-1.2-5.6-2.5c-2.3-1.8-3.6-4.2-3.8-7
	c-0.2-2.8-0.1-5.6,0.1-8.3c0.3-4.6,2.8-7.5,7.1-9.1c3.1-1.1,6.4-1.5,9.6-1.7c4.1-0.2,8.3-0.2,12.4,0.4c2.2,0.3,4.3,0.8,6.4,1.7
	c3.1,1.4,5,3.7,5.8,7c0.5,2.4,0.5,4.8,0.5,7.3c-2.2,0-4.3,0-6.5,0c0-0.8,0-1.7,0-2.5c-0.1-1-0.1-2-0.3-3c-0.4-2.1-1.7-3.6-3.7-4.4
	c-2.7-1.1-5.5-1.3-8.3-1.4c-3.6-0.1-7.1-0.1-10.6,0.8c-0.6,0.1-1.1,0.3-1.7,0.5c-2.4,0.9-3.8,2.6-4,5.2c-0.2,2.2-0.3,4.4-0.1,6.6
	c0.2,2.5,1.8,4.1,4.1,4.7c2.2,0.6,4.5,0.9,6.8,1.3c5,0.8,9.9,1.6,14.9,2.5c2,0.4,3.8,1.2,5.5,2.4c2.4,1.8,3.7,4.2,4,7.1
	c0.3,3.2,0.3,6.4-0.2,9.6c-0.6,4.1-3,6.7-6.8,8.1c-2.9,1.1-5.9,1.5-9,1.7c-4.2,0.3-8.4,0.2-12.7-0.3c-2.4-0.3-4.8-0.8-7-1.8
	c-3.2-1.5-5.2-4-5.8-7.5C320.2,52.3,320.5,49.2,320.4,46.1z"/>
<path class="st0" d="M205.1,79.6c0.7,0,1.2,0,1.9,0c0,0.3,0,0.6,0,0.9c0,3.5,0,7,0,10.5c0,2,0.7,2.7,2.7,2.7c0.4,0,0.8,0,1.2,0
	c1.7-0.1,2.4-0.8,2.4-2.5c0-3.6,0-7.1,0-10.7c0-0.3,0-0.6,0-0.9c0.6,0,1.2,0,1.9,0c0,0.3,0,0.6,0,0.8c0,3.4,0,6.8,0,10.2
	c0,0.4,0.1,0.8,0.1,1.2c0.1,0.9,0.6,1.6,1.6,1.7c1,0.1,2.1,0.1,3.2,0c0.9-0.1,1.3-0.7,1.4-1.6c0.1-0.5,0.1-1,0.1-1.6
	c0-3.3,0-6.6,0-9.9c0-0.3,0-0.6,0-0.9c0.6,0,1.2,0,1.8,0c0,0.3,0,0.6,0,0.9c0,3.6,0,7.1,0,10.7c0,2.6-0.9,3.7-3.5,4
	c-0.9,0.1-1.9,0.1-2.9,0c-1.1-0.1-2-0.6-2.7-1.6c-1.7,2-4,1.9-6.3,1.5c-1.8-0.3-2.7-1.3-2.8-3.1c-0.1-3.2,0-6.5-0.1-9.7
	C205.1,81.4,205.1,80.5,205.1,79.6z"/>
<path class="st0" d="M155.7,107.9c-0.6,0-1.1,0-1.7,0c0-0.3-0.1-0.6-0.1-0.9c-0.1-1.1-0.4-1.7-1.5-2c-1.8-0.5-3.5-0.4-5.3,0
	c-0.8,0.2-1.3,0.7-1.4,1.5c-0.1,0.6-0.1,1.2-0.1,1.9c0.1,0.8,0.6,1.3,1.7,1.5c1.6,0.3,3.2,0.5,4.8,0.8c0.5,0.1,1,0.2,1.5,0.4
	c1.4,0.5,2.1,1.5,2.1,2.9c0,0.6,0,1.1,0,1.7c-0.1,1.6-0.8,2.6-2.4,3c-2.3,0.6-4.7,0.6-7,0c-1.7-0.4-2.5-1.4-2.6-3.2
	c0-0.6,0-1.2,0-1.8c0.6,0,1.2,0,1.9,0c0,0.5,0,1,0,1.4c0.1,1.3,0.5,2.1,1.8,2.2c1.5,0.2,3,0.2,4.6,0c1.3-0.1,1.8-0.9,1.9-2.3
	c0.1-2.1-0.4-2.6-2.5-3c-1.6-0.2-3.1-0.5-4.7-0.8c-2.1-0.4-2.9-1.5-2.9-3.5c0-0.1,0-0.2,0-0.3c0-2.9,1-4,3.9-4.2
	c1.6-0.1,3.2-0.1,4.8,0.1C155.2,103.8,156,105.1,155.7,107.9z"/>
<path class="st0" d="M222.6,107.7c0.6,0,1.1,0,1.7,0c0,0.5,0,1,0,1.6c0,2,0,4,0,6.1c0,1.3,0.6,2,1.8,2.1c0.9,0.1,1.9,0.1,2.8,0
	c1.4-0.1,1.9-0.8,1.9-2.3c0-2.2,0-4.3,0-6.5c0-0.3,0-0.6,0-1c0.6,0,1.1,0,1.7,0c0,0.2,0,0.5,0,0.7c0,3.9,0,7.9,0,11.8
	c0,2.2-0.8,3.2-3,3.4c-1.5,0.1-3.1,0.1-4.6-0.2c-1.6-0.3-2.2-1.3-2.2-3.1c0.3,0,0.6,0,0.8,0c0.3,0,0.6,0,0.8,0
	c0.3,1.5,0.7,1.8,2.2,2c0.9,0.1,1.9,0,2.9-0.1c1-0.1,1.4-0.6,1.4-1.6c0.1-0.9,0-1.8,0-2.9c-1.7,1.5-3.6,1.4-5.4,1.1
	c-1.8-0.3-2.7-1.2-2.7-3c-0.1-2.6,0-5.1-0.1-7.7C222.5,108,222.6,107.9,222.6,107.7z"/>
<path class="st0" d="M365.9,95c-0.6,0-1.2,0-1.7,0c0-3.7,0-7.4,0-11.1c0.5,0,0.9,0,1.4,0c0.1,0.3,0.2,0.6,0.3,1
	c1.9-1.6,4-1.4,6.1-0.9c1.3,0.3,2.1,1.2,2.2,2.5c0.1,2.8,0,5.6,0,8.5c-0.5,0-1,0-1.7,0c0-0.3,0-0.5,0-0.8c0-2.2,0-4.3,0-6.5
	c0-1.7-0.6-2.4-2.4-2.5c-0.7,0-1.4-0.1-2,0c-1.4,0.2-2.2,1-2.2,2.4c0,2.1,0,4.3,0,6.4C365.9,94.4,365.9,94.7,365.9,95z"/>
<path class="st0" d="M194.6,118.8c-1.4,0.2-1.4,0.2-1.7-1c-1.6,1.5-3.5,1.4-5.4,1.1c-1.9-0.3-2.7-1.3-2.7-3.2c0-2.6,0-5.3,0-8
	c0.6,0,1.1,0,1.7,0c0,0.3,0,0.5,0,0.8c0,2.1,0,4.3,0,6.4c0,1.9,0.6,2.5,2.6,2.6c0.4,0,0.8,0,1.2,0c1.8-0.1,2.6-0.8,2.6-2.7
	c0-2.1,0-4.1,0-6.2c0-0.3,0-0.6,0-0.9c0.6,0,1.2,0,1.7,0C194.6,111.4,194.6,115.1,194.6,118.8z"/>
<path class="st0" d="M195.3,95c-0.6,0-1.1,0-1.7,0c0-0.9,0-1.8,0-2.7c0-1.6,0-3.1,0-4.7c0-1.6-0.6-2.3-2.2-2.4
	c-0.8-0.1-1.7,0-2.5,0.1c-1.1,0.2-1.7,0.9-1.8,2.1c-0.1,2.2-0.1,4.4-0.1,6.5c0,0.3,0,0.7,0,1.1c-0.6,0-1.1,0-1.7,0
	c0-3.7,0-7.4,0-11.1c0.5,0,0.9,0,1.4,0c0.1,0.3,0.2,0.6,0.3,1c1.9-1.6,4-1.4,6.2-0.9c1.2,0.3,2.1,1.1,2.1,2.4
	C195.4,89.3,195.3,92.1,195.3,95z"/>
<path class="st0" d="M308.3,111.6c-0.5,0-1,0-1.5,0c0-0.1-0.1-0.1-0.1-0.2c-0.3-1.8-0.7-2.3-2.6-2.4c-0.8,0-1.7,0-2.5,0.1
	c-1.1,0.2-1.6,0.8-1.6,1.9c0,1.6,0,3.2,0,4.7c0,1,0.5,1.6,1.4,1.7c1.2,0.1,2.5,0.1,3.8,0c0.8-0.1,1.3-0.7,1.4-1.5
	c0-0.3,0.1-0.7,0.1-1.1c0.5,0,1,0,1.6,0c0.5,1.9-0.4,3.4-2.2,3.9c-1.9,0.5-3.7,0.5-5.6,0c-1.5-0.4-2.1-1.2-2.2-2.7
	c0-1.8,0-3.6,0-5.4c0-1.4,0.7-2.3,2.1-2.7c1.9-0.5,3.9-0.5,5.8,0C307.8,108.3,308.6,109.6,308.3,111.6z"/>
<path class="st0" d="M181.9,111.6c-0.6,0-1.1,0-1.6,0c0-0.1-0.1-0.1-0.1-0.2c-0.1-1.7-0.5-2.2-2.2-2.4c-0.9-0.1-1.9,0-2.9,0.1
	c-1,0.1-1.5,0.7-1.6,1.7c-0.1,1.6-0.1,3.3,0,4.9c0,1,0.5,1.6,1.6,1.7c1,0.1,2,0.2,2.9,0.1c1.6-0.2,2-0.7,2.1-2.7c0.5,0,1.1,0,1.6,0
	c0.4,2.1-0.4,3.5-2.4,3.9c-1.8,0.4-3.6,0.4-5.3-0.1c-1.6-0.4-2.3-1.3-2.3-3c0-1.6,0-3.1,0-4.7c0-1.9,0.7-2.9,2.6-3.3
	c1.7-0.4,3.5-0.4,5.2,0C181.5,108.3,182.2,109.6,181.9,111.6z"/>
<path class="st0" d="M318.5,91c0.6,0,1.1,0,1.6,0c0.5,2-0.4,3.4-2.3,3.9c-1.8,0.5-3.7,0.4-5.5,0c-1.5-0.4-2.2-1.3-2.2-2.9
	c0-1.7,0-3.4,0-5.1c0-1.6,0.7-2.5,2.3-2.9c1.9-0.5,3.8-0.5,5.7,0c1.6,0.4,2.4,1.8,2.1,3.7c-0.5,0-1.1,0-1.6,0c0-0.3,0-0.5-0.1-0.8
	c-0.1-0.8-0.5-1.5-1.4-1.6c-1.3-0.1-2.6-0.1-3.8,0c-0.8,0.1-1.4,0.7-1.4,1.6c0,1.7-0.1,3.4,0,5.1c0,0.9,0.5,1.5,1.5,1.6
	c1.1,0.1,2.2,0.2,3.2,0.1c1.4-0.1,1.8-0.7,1.9-2.1C318.5,91.4,318.5,91.3,318.5,91z"/>
<path class="st0" d="M213.6,109.1c-0.5,0-1,0-1.5-0.1c0-0.4,0-0.9,0-1.3c0.5,0,0.9,0,1.5-0.1c0-0.9,0-1.7,0-2.6c0.6,0,1.1,0,1.7,0
	c0,0.8,0,1.7,0,2.6c1.6,0,3,0,4.6,0c0,0.5,0,0.9,0,1.4c-1.5,0-2.9,0-4.3,0c-0.1,0.1-0.2,0.1-0.2,0.2c0,2.3-0.1,4.5,0,6.8
	c0,1,0.7,1.6,1.8,1.6c0.9,0,1.8-0.1,2.7-0.2c0,0.3,0,0.8,0,1.2c-1.6,0.4-3.2,0.6-4.8-0.1c-1.1-0.5-1.5-1.4-1.5-2.5c0-2,0-4,0-6.1
	C213.6,109.8,213.6,109.5,213.6,109.1z"/>
<path class="st0" d="M337.2,85.2c-0.5,0-0.9,0-1.4,0c0-0.5,0-0.9,0-1.4c0.4,0,0.9,0,1.4-0.1c0-0.9,0-1.7,0-2.7c0.6,0,1.1,0,1.8,0
	c0,0.9,0,1.7,0,2.7c1.6,0,3,0,4.6,0c0,0.5,0,0.9,0,1.4c-1.5,0-3,0-4.6,0c0,0.8,0,1.5,0,2.2c0,1.5,0,2.9,0,4.4c0,1.4,0.6,2.1,2,2.1
	c0.8,0,1.6-0.1,2.5-0.2c0,0.4,0,0.8,0,1.3c-1.5,0.4-3.1,0.6-4.6,0c-1.2-0.5-1.7-1.5-1.7-2.8c0-2,0-4,0-6
	C337.2,85.8,337.2,85.6,337.2,85.2z"/>
<path class="st0" d="M312,109.1c-0.6,0-1,0-1.5,0c0-0.5,0-0.9,0-1.4c0.5,0,0.9-0.1,1.4-0.1c0-0.9,0-1.7,0-2.5
	c0.2-0.1,0.2-0.1,0.3-0.1c1.4-0.1,1.4-0.1,1.4,1.3c0,0.4,0,0.8,0,1.3c1.5,0,3,0,4.5,0c0,0.5,0,0.9,0,1.4c-1.5,0-2.9,0-4.5,0
	c0,0.3-0.1,0.5-0.1,0.7c0,2,0,3.9,0,5.9c0,1.3,0.6,1.9,1.9,2c0.4,0,0.9,0,1.3-0.1c0.4,0,0.9-0.1,1.3-0.2c0.3,1.2,0.3,1.4-1,1.5
	c-1,0.1-2,0.1-3,0c-1.5-0.3-2.2-1.3-2.2-2.8c0-2,0-4,0-6.1C312,109.7,312,109.5,312,109.1z"/>
<path class="st0" d="M280.6,107.7c0.6,0,1.1,0,1.7,0c0,0.2,0,0.5,0,0.7c0,4,0,8,0,12c0,0.5,0,0.9-0.2,1.4c-0.3,1.1-1.2,1.8-2.4,1.9
	c-0.4,0-0.9,0-1.3,0c-1.2,0-1.3-0.1-1.1-1.4c0.5,0,0.9,0.1,1.4,0.1c1.4,0,1.9-0.5,1.9-1.8c0-2.1,0-4.3,0-6.4c0-1.9,0-3.8,0-5.8
	C280.5,108.2,280.6,108,280.6,107.7z"/>
<path class="st0" d="M300.7,79.6c0.6,0,1.1,0,1.7,0c0,5.2,0,10.3,0,15.4c-0.6,0-1.1,0-1.7,0C300.7,89.9,300.7,84.8,300.7,79.6z"/>
<path class="st0" d="M199.4,118.9c-0.6,0-1.1,0-1.7,0c0-3.7,0-7.4,0-11.1c0.5,0,0.9,0,1.4,0c0.1,0.3,0.2,0.7,0.3,1.1
	c1.3-1.3,2.9-1.4,4.5-1.2c1.3,0.1,1.4,0.2,1.2,1.4c-1.1,0-2.2-0.1-3.3,0c-1.7,0.1-2.4,0.9-2.4,2.6c0,2,0,4.1,0,6.1
	C199.4,118.1,199.4,118.5,199.4,118.9z"/>
<path class="st0" d="M259.2,118.9c-0.6,0-1.1,0-1.6,0c0-3.7,0-7.4,0-11.1c1.2-0.3,1.3-0.2,1.7,1c1.3-1.2,2.8-1.3,4.4-1.2
	c1.4,0.1,1.5,0.2,1.3,1.6c-1.1,0-2.3-0.2-3.4-0.1c-1.6,0.1-2.3,0.9-2.4,2.6c0,2.1,0,4.2,0,6.3C259.2,118.2,259.2,118.5,259.2,118.9z
	"/>
<path class="st0" d="M209.6,118.9c-0.6,0-1.1,0-1.7,0c0-3.7,0-7.4,0-11.1c0.5,0,1.1,0,1.7,0C209.6,111.4,209.6,115.1,209.6,118.9z"
	/>
<path class="st0" d="M348,95.1c-0.6,0-1.1,0-1.7,0c0-3.7,0-7.4,0-11.1c0.5,0,1.1,0,1.7,0C348,87.6,348,91.3,348,95.1z"/>
<path class="st0" d="M307.2,95.1c-0.6,0-1.1,0-1.7,0c0-3.7,0-7.4,0-11.1c0.5,0,1.1,0,1.7,0C307.2,87.6,307.2,91.3,307.2,95.1z"/>
<path class="st0" d="M348,82.3c-0.6,0-1.1,0-1.7,0c0-0.5,0-1.1,0-1.6c0.6,0,1.1,0,1.7,0C348,81.2,348,81.7,348,82.3z"/>
<path class="st0" d="M307.2,80.6c0,0.6,0,1.1,0,1.7c-0.6,0-1.1,0-1.7,0c0-0.6,0-1.1,0-1.7C306.1,80.6,306.6,80.6,307.2,80.6z"/>
<path class="st0" d="M280.6,104.4c0.6,0,1.1,0,1.7,0c0,0.5,0,1.1,0,1.6c-0.6,0-1.1,0-1.7,0C280.6,105.5,280.6,105,280.6,104.4z"/>
<path class="st0" d="M209.6,104.5c0,0.5,0,1,0,1.6c-0.6,0-1.1,0-1.7,0c0-0.5,0-1,0-1.6C208.4,104.5,209,104.5,209.6,104.5z"/>
<path class="st0" d="M310.1,64.5c0-0.3,0-0.7,0-1c0-13.1,0-26.2,0-39.3c0-1.2-0.1-2.5-0.2-3.7c-0.4-4.6-2.7-7.8-7-9.3
	c-1-0.4-2.1-0.7-3.2-0.9c-4.7-1-9.4-1-14.2-0.8c-3.2,0.1-6.3,0.5-9.3,1.4c-3.8,1.2-6.7,3.4-7.5,7.5c-0.3,1.6-0.5,3.2-0.5,4.8
	c0,13.5,0,27,0,40.5c0,0.3,0,0.5,0,0.8c2.2,0,4.3,0,6.5,0c0-6.7,0-13.4,0-20.1c9.7,0,19.3,0,29,0c0,6.8,0,13.4,0,20.1
	C305.8,64.5,307.9,64.5,310.1,64.5z M303.5,37.6c0,0.3,0,0.6,0,0.9c-9.7,0-19.3,0-29,0c0-1,0-2,0-3c0-4.1,0-8.2,0-12.3
	c0-1,0.1-1.9,0.3-2.8c0.5-2.4,2-3.9,4.3-4.7c2.2-0.8,4.5-1,6.8-1.1c3.8-0.2,7.6-0.2,11.3,0.7c0.6,0.1,1.2,0.3,1.7,0.5
	c2.7,1,4.1,2.9,4.3,5.7c0.1,1.1,0.2,2.2,0.2,3.3C303.6,29,303.5,33.3,303.5,37.6z"/>
<path class="st0" d="M182.8,37.2c0,0-0.1,0-0.1,0c0-5.3,0.1-10.6,0-15.9c-0.1-4.4-2-7.8-6.3-9.6c-1.1-0.5-2.3-0.9-3.5-1.2
	c-4.9-1.1-9.9-1.2-14.9-1c-3.5,0.2-6.9,0.5-10.2,1.7c-3.5,1.3-6,3.6-6.8,7.3c-0.3,1.6-0.5,3.2-0.5,4.9c0,8.8,0,17.6,0,26.5
	c0,1.3,0,2.6,0.2,4c0.4,4.6,2.6,7.9,7,9.4c1.8,0.6,3.7,1.1,5.6,1.4c4.8,0.7,9.6,0.7,14.4,0.3c2.8-0.2,5.6-0.7,8.2-1.7
	c3.7-1.4,6.1-4,6.7-8c0.2-1.5,0.4-3,0.4-4.6C182.9,46.1,182.8,41.6,182.8,37.2z M176.3,50.3c0,1-0.1,2-0.2,3
	c-0.4,2.5-1.7,4.3-4.1,5.2c-2.2,0.9-4.5,1.1-6.8,1.3c-3.8,0.2-7.6,0.2-11.4-0.5c-0.1,0-0.2,0-0.2,0c-4.6-1-6.6-3.3-6.6-8.1
	c-0.1-9,0-18,0-27c0-1.1,0.1-2.1,0.3-3.2c0.4-2.5,1.8-4.2,4.2-5.1c2.3-0.9,4.7-1.2,7.1-1.3c3.8-0.2,7.6-0.2,11.3,0.6
	c0.4,0.1,0.8,0.2,1.2,0.3c3.4,1,5,3.1,5.2,6.6c0.1,1.6,0.1,3.1,0.1,4.7c0,3.5,0,7,0,10.4C176.3,41.6,176.3,45.9,176.3,50.3z"/>
<path class="st0" d="M414.8,21.7c-0.3-5.2-3.2-8.8-8.3-10.5c-2.8-0.9-5.7-1.2-8.7-1.2c-8,0-16,0-24,0c-0.3,0-0.6,0-0.8,0
	c0,18.2,0,36.4,0,54.5c2.2,0,4.3,0,6.5,0c0-5.2,0-10.4,0-15.6c0.4,0,0.7,0,1,0c5.5,0,10.9,0,16.4,0c2.6,0,5.3-0.2,7.9-0.8
	c6-1.4,9.6-5.3,10-11.3C415.1,31.7,415.1,26.7,414.8,21.7z M408.2,36.2c-0.7,4.2-3.1,6.5-7.3,7.2c-1.1,0.2-2.2,0.2-3.2,0.3
	c-5.7,0-11.4,0-17.1,0c-0.3,0-0.7,0-1,0c0-9.5,0-19,0-28.5c0.3,0,0.6,0,0.8,0c5.5,0,11,0,16.6,0c1.7,0,3.4,0.2,5.1,0.5
	c3.7,0.9,6,3.4,6.3,7.2c0.2,3.1,0.2,6.2,0.2,9.2C408.5,33.5,408.5,34.9,408.2,36.2z"/>
<path class="st0" d="M271.3,82.5c0-1.4-0.9-2.4-2.3-2.7c-2.5-0.6-4.9-0.7-7.4,0c-1.5,0.4-2.2,1.3-2.3,2.9c0,0.3,0,0.6,0,0.9
	c0,3.6,0,7.1,0,10.7c0,0.3,0,0.5,0,0.8c0.6,0,1.2,0,1.9,0c0-1.9,0-3.8,0-5.6c2.8,0,5.5,0,8.3,0c0,1.9,0,3.8,0,5.7c0.6,0,1.2,0,1.8,0
	C271.3,90.8,271.3,86.7,271.3,82.5z M269.4,87.6c-2.7,0-5.4,0-8.2,0c0-1.7,0-3.3,0-5c0-0.8,0.6-1.4,1.4-1.6c1.7-0.4,3.5-0.4,5.2,0
	c0.9,0.2,1.5,0.9,1.5,1.8C269.5,84.5,269.4,86,269.4,87.6z"/>
<path class="st0" d="M156,82.6c0-1.5-0.9-2.4-2.3-2.8c-2.5-0.7-5-0.7-7.5,0c-1.4,0.4-2.1,1.4-2.2,2.8c-0.1,1.5,0,3.1,0,4.6
	c0,1.6,0,3.1,0,4.7c0,1.4,0.8,2.4,2.1,2.8c2.6,0.7,5.2,0.7,7.7,0c1.3-0.4,2.1-1.3,2.1-2.7C156,88.9,156,85.8,156,82.6z M154.1,91.6
	c0,1.1-0.5,1.6-1.6,1.9c-1.7,0.4-3.4,0.4-5.2,0c-1-0.3-1.5-0.9-1.6-2c0-1.4,0-2.9,0-4.3c0,0,0,0,0,0c0-1.4,0-2.7,0-4.1
	c0-1.2,0.5-1.9,1.7-2c1.7-0.1,3.4-0.1,5,0c1.1,0.1,1.6,0.8,1.6,1.9C154.2,85.9,154.2,88.7,154.1,91.6z"/>
<path class="st0" d="M254.5,107.5c-0.1-2.5-1.3-3.8-3.7-4c-2.5-0.1-5-0.1-7.5-0.1c-0.7,0-0.8,0.2-0.8,0.8c0,4.6,0,9.3,0,13.9
	c0,0.2,0,0.5,0.1,0.7c0.6,0,1.2,0,1.8,0c0-1.5,0-2.9,0-4.4c0.5,0,0.8,0,1.1,0c1.8,0,3.5,0,5.3-0.1c2.4-0.2,3.7-1.5,3.7-3.9
	C254.5,109.4,254.5,108.4,254.5,107.5z M252.5,110.9c-0.1,1.1-0.8,1.8-1.9,1.9c-1.2,0.1-2.4,0.1-3.6,0.1c-0.8,0-1.7,0-2.6,0
	c0-2.7,0-5.4,0-8.1c2,0,4.1-0.1,6.1,0c1.3,0.1,2,0.8,2.1,2.2C252.6,108.4,252.6,109.7,252.5,110.9z"/>
<path class="st0" d="M297.7,86.9c-0.1-1.8-1-2.7-2.9-3c-1.9-0.3-3.9-0.4-5.5,1.1c-0.1-0.4-0.2-0.7-0.3-1.1c-0.5,0-0.9,0-1.4,0
	c0,5.3,0,10.5,0,15.8c0.6,0,1.1,0,1.7,0c0-1.9,0-3.7,0-5.5c0.7,0.3,1.3,0.8,1.9,0.8c1.3,0.1,2.7,0.1,4-0.1c1.5-0.2,2.4-1.2,2.4-2.7
	C297.7,90.4,297.8,88.7,297.7,86.9z M295.9,91.7c-0.1,1-0.5,1.7-1.5,1.8c-1.2,0.1-2.4,0.1-3.6,0c-1-0.1-1.4-0.7-1.5-1.7
	c0-1.5,0-3.1,0-4.6c0-1,0.5-1.6,1.5-1.7c1.2-0.1,2.5-0.1,3.7,0c0.9,0.1,1.3,0.7,1.4,1.7c0,0.1,0,0.2,0,0.2c0,0.7,0,1.4,0,2.1
	c0,0,0,0,0,0C295.9,90.2,296,91,295.9,91.7z"/>
<path class="st0" d="M169.3,86.8c0-1.4-0.8-2.4-2.1-2.7c-2.2-0.5-4.3-0.7-6.2,0.9c-0.1-0.4-0.2-0.7-0.3-1.1c-0.5,0-0.9,0-1.4,0
	c0,5.3,0,10.6,0,15.8c0.6,0,1.1,0,1.7,0c0-1.9,0-3.7,0-5.6c0.6,0.3,1.2,0.7,1.8,0.9c1.5,0.4,3,0.3,4.5-0.1c1.3-0.4,2.1-1.3,2.1-2.7
	C169.4,90.3,169.4,88.6,169.3,86.8z M167.5,92c-0.1,0.8-0.6,1.4-1.4,1.5c-1.1,0.1-2.2,0.2-3.3,0.1c-1.3-0.1-1.8-0.8-1.9-2.1
	c-0.1-1.4-0.1-2.7,0-4.1c0.1-1.3,0.5-1.9,1.8-2.1c1-0.1,2.1-0.1,3.1,0c1.2,0.2,1.7,0.8,1.8,2.1c0,0.7,0,1.4,0,2.1c0,0,0,0,0,0
	C167.6,90.4,167.6,91.2,167.5,92z"/>
<path class="st0" d="M284.7,86.9c0-1.2-0.6-2.3-1.8-2.7c-2.3-0.7-4.5-0.9-6.6,0.7c-0.5-1.1-0.5-1.1-1.7-1c0,5.3,0,10.5,0,15.8
	c0.6,0,1.1,0,1.7,0c0-1.9,0-3.8,0-5.5c0.6,0.3,1.3,0.8,1.9,0.8c1.4,0.1,2.7,0.1,4.1-0.1c1.6-0.3,2.3-1.3,2.4-2.8
	C284.7,90.3,284.7,88.6,284.7,86.9z M282.9,92c0,0.9-0.6,1.5-1.5,1.6c-1.2,0.1-2.3,0.1-3.5,0c-1.1-0.1-1.5-0.8-1.6-1.9
	c0-0.1,0-0.2,0-0.2c0-0.7,0-1.3,0-2c0,0,0,0,0,0c0-0.7,0-1.4,0-2.1c0.1-1.2,0.5-1.8,1.6-1.9c1.1-0.1,2.3-0.1,3.5,0
	c0.9,0.1,1.4,0.7,1.4,1.6C282.9,88.6,282.9,90.3,282.9,92z"/>
<path class="st0" d="M249.7,87c-0.1-1.8-1-2.8-2.8-3.1c-1.9-0.3-3.8-0.4-5.5,1.1c0-1.4,0-2.7,0-3.9c0-1.5,0-1.5-1.5-1.4
	c-0.1,0-0.1,0.1-0.2,0.1c0,5.1,0,10.3,0,15.4c0.5,0,1,0,1.4,0c0.1-0.4,0.2-0.7,0.3-1c0.5,0.3,1,0.7,1.5,0.8c1.5,0.5,3,0.5,4.4,0.1
	c1.6-0.4,2.4-1.3,2.5-3C249.7,90.3,249.8,88.7,249.7,87z M248,91.6c-0.1,1.1-0.5,1.7-1.6,1.9c-1.2,0.1-2.4,0.1-3.5,0
	c-0.8-0.1-1.4-0.7-1.4-1.6c0-1.6,0-3.3,0-4.9c0-0.9,0.6-1.5,1.4-1.6c1.2-0.1,2.4-0.1,3.5,0c1.1,0.1,1.5,0.8,1.6,1.9
	c0,0.4,0,0.8,0,1.1c0,0.4,0,0.8,0,1.1C248,90.2,248,90.9,248,91.6z"/>
<path class="st0" d="M182.4,89.9c0-1.1,0-2,0-3c0-1.5-0.7-2.4-2.1-2.8c-2-0.6-4.1-0.6-6.1,0c-1.2,0.3-2,1.2-2,2.5
	c-0.1,1.8-0.1,3.7,0,5.5c0.1,1.7,0.8,2.4,2.5,2.9c0.4,0.1,0.8,0.2,1.1,0.2c1.6,0.1,3.2,0.2,4.7-0.4c1.5-0.5,2.2-1.8,1.8-3.2
	c-0.5,0-1,0-1.6,0c0,1.1-0.6,2-1.7,2.1c-1.2,0.1-2.5,0.1-3.7,0c-0.8-0.1-1.4-0.7-1.5-1.5c-0.1-0.7,0-1.4,0-2.1
	C176.7,89.9,179.5,89.9,182.4,89.9z M176.2,85.1c0.6-0.1,1.3-0.1,1.9,0c2.2,0.1,2.9,1.1,2.5,3.4c-2.3,0-4.5,0-6.7,0
	C173.5,86.4,174.2,85.4,176.2,85.1z"/>
<path class="st0" d="M236.7,87c-0.1-1.6-0.8-2.6-2.3-3c-1.9-0.5-3.9-0.5-5.8,0c-1.4,0.4-2.2,1.2-2.2,2.7c-0.1,1.8-0.1,3.6,0,5.4
	c0,1.1,0.5,2.1,1.6,2.5c2.4,0.9,4.8,0.9,7.1,0c1.3-0.5,1.8-1.7,1.5-3.1c-0.5,0-1,0-1.6,0c0,1.1-0.6,2-1.7,2.1
	c-1.2,0.1-2.4,0.1-3.5,0c-0.6,0-1.3-0.4-1.5-1.1c-0.2-0.8-0.2-1.7-0.3-2.6c3,0,5.8,0,8.7,0C236.7,88.9,236.8,87.9,236.7,87z
	 M234.9,88.5c-2.2,0-4.5,0-6.7,0c-0.5-1.9,0.2-3,2-3.3c0.8-0.1,1.6-0.1,2.4-0.1C234.6,85.4,235.3,86.4,234.9,88.5z"/>
<path class="st0" d="M169.1,110.6c-0.1-1.4-0.9-2.4-2.3-2.7c-1.9-0.5-3.9-0.5-5.8,0c-1.5,0.4-2.3,1.4-2.3,2.9c0,1.7,0,3.4,0,5.1
	c0,1.2,0.5,2.3,1.8,2.7c2.2,0.8,4.5,0.8,6.8,0c1.3-0.5,2-1.7,1.7-3.1c-0.4,0-0.8-0.1-1.1,0c-0.2,0-0.5,0.3-0.5,0.5
	c-0.2,1-0.8,1.5-1.7,1.6c-1.2,0.1-2.4,0.1-3.6,0c-0.5-0.1-1.2-0.6-1.4-1.1c-0.3-0.8-0.2-1.7-0.3-2.6c3,0,5.8,0,8.7,0
	C169.1,112.6,169.2,111.6,169.1,110.6z M167.3,112.3c-2.3,0-4.5,0-6.7,0c-0.4-2,0.3-3,2.2-3.3c0.7-0.1,1.5-0.1,2.2,0
	C167,109.2,167.7,110.1,167.3,112.3z"/>
<path class="st0" d="M295.5,110.5c-0.1-1.4-0.8-2.2-2.1-2.6c-2-0.6-4.1-0.6-6.1,0c-1.4,0.4-2,1.3-2.1,2.7c-0.1,1.8,0,3.6,0,5.4
	c0,1.3,0.7,2.2,1.9,2.6c2.2,0.7,4.3,0.7,6.5,0c1.4-0.5,2-1.6,1.8-3.1c-0.5,0-1,0-1.6,0c0,1.1-0.5,1.9-1.6,2c-1.3,0.1-2.6,0.1-3.8,0
	c-0.7-0.1-1.3-0.6-1.4-1.4c-0.1-0.8-0.1-1.5-0.1-2.4c3,0,5.8,0,8.6,0C295.5,112.6,295.5,111.6,295.5,110.5z M293.7,112.3
	c-2.3,0-4.5,0-6.7,0c-0.5-1.8,0.2-3,2-3.3c0.7-0.1,1.4-0.1,2.1-0.1C293.3,109.1,294,110,293.7,112.3z"/>
<path class="st0" d="M333.4,86.4c0-1-0.7-1.7-1.6-2.1c-0.6-0.2-1.2-0.4-1.8-0.5c-1.7-0.2-3.5-0.2-5.1,0.6c-0.9,0.4-1.4,1.1-1.4,2.2
	c0.5,0,1.1,0.1,1.7,0.1c0.3-1,1-1.4,1.8-1.5c0.8-0.1,1.6-0.2,2.4-0.1c1.9,0.2,2.6,1.2,2.2,3.2c-1.1,0-2.3,0-3.4,0
	c-0.9,0-1.9,0.1-2.8,0.3c-1.8,0.4-2.7,1.6-2.6,3.4c0.1,1.6,1.1,2.8,2.8,3c2.1,0.3,4.2,0.3,6-1.1c0.5,1.3,0.5,1.3,1.7,1.1
	C333.4,92.1,333.4,89.2,333.4,86.4z M331.7,91.4c-0.1,0.9-0.6,1.5-1.3,1.8c-1.4,0.6-2.8,0.7-4.3,0.3c-0.9-0.2-1.4-0.8-1.5-1.6
	c0-0.9,0.4-1.6,1.3-1.9c0.7-0.2,1.5-0.3,2.2-0.4c1.2-0.1,2.3,0,3.5,0C331.7,90.3,331.7,90.9,331.7,91.4z"/>
<path class="st0" d="M277.7,113.3c0-0.9,0-1.7,0-2.6c0-1.4-0.7-2.4-2.1-2.8c-2.1-0.6-4.3-0.6-6.4,0c-1.1,0.3-1.8,1.1-1.9,2.3
	c-0.1,1.9-0.1,3.8,0,5.7c0.1,1.7,0.8,2.4,2.4,2.8c1.8,0.4,3.7,0.4,5.5,0c1.7-0.4,2.4-1.3,2.4-3.1
	C277.7,114.9,277.7,114.1,277.7,113.3C277.7,113.3,277.7,113.3,277.7,113.3z M275.9,115.6c0,1.1-0.5,1.7-1.6,1.8
	c-1.3,0.1-2.6,0.1-3.8,0c-1-0.1-1.4-0.8-1.4-1.7c0-0.8,0-1.6,0-2.4c0,0,0,0,0,0c0-0.8,0-1.5,0-2.3c0-1.1,0.5-1.7,1.5-1.9
	c1.3-0.1,2.6-0.1,3.8,0c1,0.1,1.5,0.8,1.5,1.8C276,112.5,276,114.1,275.9,115.6z"/>
<path class="st0" d="M361.3,87c0-1.6-0.8-2.6-2.3-3c-1.9-0.5-3.7-0.5-5.6,0c-1.6,0.4-2.3,1.2-2.4,2.8c-0.1,1.8-0.1,3.5,0,5.3
	c0.1,1.5,0.8,2.4,2.2,2.8c2,0.5,4,0.5,5.9,0c1.5-0.4,2.2-1.4,2.2-3c0-0.8,0-1.6,0-2.4C361.3,88.7,361.3,87.8,361.3,87z M359.5,91.9
	c0,1-0.6,1.6-1.6,1.7c-1.2,0.1-2.4,0.1-3.6,0c-1-0.1-1.5-0.7-1.6-1.8c-0.1-0.8,0-1.6,0-2.4c0,0,0,0,0,0c0-0.9,0-1.7,0-2.6
	c0-0.8,0.5-1.3,1.2-1.5c1.4-0.4,2.8-0.4,4.2,0c0.8,0.2,1.3,0.8,1.3,1.6C359.5,88.6,359.5,90.3,359.5,91.9z"/>
</svg>
